<svg width="32" height="25" viewBox="0 0 32 25" fill="none" xmlns="http://www.w3.org/2000/svg">
<g clip-path="url(#clip0_4_5)">
<path d="M22.6787 12.0449L17.1875 8.75V6.25H19.5312C19.9629 6.25 20.3125 5.90039 20.3125 5.46875V3.90625C20.3125 3.47461 19.9629 3.125 19.5312 3.125H17.1875V0.78125C17.1875 0.349609 16.8379 0 16.4062 0H14.8438C14.4121 0 14.0625 0.349609 14.0625 0.78125V3.125H11.7188C11.2871 3.125 10.9375 3.47461 10.9375 3.90625V5.46875C10.9375 5.90039 11.2871 6.25 11.7188 6.25H14.0625V8.75L8.57129 12.0449C8.33987 12.1837 8.14835 12.3801 8.01537 12.6149C7.8824 12.8497 7.8125 13.1149 7.8125 13.3848V25H12.5V20.3125C12.5 18.5864 13.8989 17.1875 15.625 17.1875C17.3511 17.1875 18.75 18.5864 18.75 20.3125V25H23.4375V13.3848C23.4375 12.8359 23.1494 12.3271 22.6787 12.0449ZM0 19.334V24.2188C0 24.6504 0.349609 25 0.78125 25H6.25V15.625L0.946777 17.8975C0.665789 18.0181 0.42634 18.2185 0.258062 18.4738C0.0897836 18.7291 6.20242e-05 19.0282 0 19.334ZM30.3032 17.8975L25 15.625V25H30.4688C30.9004 25 31.25 24.6504 31.25 24.2188V19.334C31.25 18.709 30.8774 18.144 30.3032 17.8975Z" fill="#FB8500"/>
</g>
<defs>
<clipPath id="clip0_4_5">
<rect width="31.25" height="25" fill="white"/>
</clipPath>
</defs>
</svg>
